<?xml version="1.0"?>
<svg version="1.1" xmlns="http://www.w3.org/2000/svg" width="320px" height="48px" style=""><path fill="#ffffff" d="M20.176,44.916l-5.656-3.808c-5.152-0.336-7.98-3.78-7.98-10.024c0-6.384,3.64-10.36,9.436-10.36c5.74,0,8.904,3.696,8.904,9.94c0,4.844-2.212,8.428-5.824,9.828c1.68,1.064,3.696,2.688,5.404,2.688c0.896,0,2.576-0.98,2.576-0.98c0.504,0.728,0.98,1.484,1.484,2.24c0,0-2.94,1.96-4.76,1.96c-1.204,0-2.352-0.644-3.584-1.484z M15.836,24.224c-3.136,0-4.676,2.016-4.676,6.72c0,4.48,1.4,6.72,4.396,6.72c3.164,0,4.704-2.184,4.704-6.86c0-4.48-1.344-6.58-4.424-6.58z M28.14228,28.06l0-2.24l6.44-0.14l0,9.66c0,1.54,0.448,2.24,1.708,2.24c1.82,0,3.164-1.512,3.164-1.512l0-7.308l-2.24-0.7l0-2.24l6.44-0.14l0,12.18l2.24,0.56l0,2.184l-5.908,0.196l-0.28-1.96s-2.24,2.24-4.9,2.24c-2.8,0-4.424-1.876-4.424-5.012l0-7.308z M48.54056,28.06l0-2.24l7.476-0.14l0,2.38l-1.568,0.28l2.492,7.84l2.38-7.756l-1.624-0.364l0-2.24l7.532-0.14l0,2.38l-1.736,0.364l-4.116,11.48c-1.344,3.696-3.164,7.616-7.616,7.616c-0.952,0-2.716-0.224-2.716-0.224l0.392-2.996l1.82,0c2.24,0,3.276-2.38,3.752-3.472l-4.984-12.32z M70.05884,45.98l-1.764-1.456s1.68-2.24,1.68-3.36c0-0.784-0.812-1.26-0.812-2.576c0-1.512,1.036-2.492,2.408-2.492c1.4,0,2.352,0.896,2.352,2.576c0,2.128-1.26,4.508-3.864,7.308z"/><path fill="#dbdbdb" d="M93.45,37.8l2.85,0.6l0,1.8l-8.1,0l0-1.8l2.55-0.6l0-16.2l-2.55-0.6l0-1.65l6.3-0.15l9.9,16.77l0-14.37l-2.55-0.6l0-1.65l7.8-0.15l0,1.8l-2.55,0.6l0,18.6l-3.75,0l-9.9-16.53l0,14.13z M129.558,26.1l-2.91,0.42s0.81,1.08,0.81,3.03c0,4.05-2.7,5.85-6.6,5.85c-1.35,0-2.25-0.27-2.25-0.27l-0.15,2.82l4.65,0c3.9,0,6,1.5,6,4.35c0,3.3-2.55,5.4-7.8,5.4c-4.2,0-7.2-1.05-7.2-4.35c0-2.7,3.15-3.75,3.15-3.75s-1.8-0.15-1.8-1.71c0-0.99,1.56-3.39,1.56-3.39s-2.31-1.05-2.31-4.65c0-3.9,2.7-5.85,6.6-5.85c1.95,0,3,0.57,3,0.57l5.25-0.12l0,1.65z M121.158,26.1c-2.4,0-3.45,1.2-3.45,3.6c0,2.1,1.05,3.6,3.3,3.6c2.4,0,3.45-1.05,3.45-3.6c0-2.25-1.05-3.6-3.3-3.6z M122.358,40.2l-3.3,0s-1.95,0.9-1.95,2.7c0,2.1,1.8,2.55,4.65,2.55c3,0,4.5-0.9,4.5-2.85s-1.5-2.4-3.9-2.4z M151.116,38.4l0,1.65l-4.95,0.15l-0.3-2.1c-0.72,0.63-3.09,2.4-5.55,2.4c-3.3,0-4.8-2.07-4.8-5.37l0-8.43l-2.55-0.6l0-1.65l5.55-0.15l0,10.53c0,2.1,0.75,3.12,2.7,3.12c2.55,0,4.35-2.37,4.35-2.37l0-8.88l-2.55-0.6l0-1.65l5.55-0.15l0,13.5z M159.174,26.4l3.6,10.5l3.3-10.35l-2.1-0.45l0-1.65l7.11-0.15l0,1.8l-1.95,0.3l-4.26,11.88c-1.59,4.17-3.15,9.12-8.1,9.12c-0.75,0-1.92-0.15-1.92-0.15l0.27-2.1l1.5,0c2.1,0,3.45-1.98,4.77-4.89l-5.37-13.71l-1.8-0.45l0-1.65l7.05-0.15l0,1.8z M187.992,32.7l-10.35,0c0,3.3,1.77,5.4,4.35,5.4c3,0,5.04-1.65,5.04-1.65l1.05,1.56s-2.79,2.49-6.39,2.49c-4.8,0-7.2-3.15-7.2-8.1c0-4.8,3-8.4,7.35-8.4s6.3,2.55,6.3,7.05c0,0.75-0.15,1.59-0.15,1.65z M177.762,30.45l7.2,0c0-2.25-0.87-4.11-3.27-4.11s-3.75,1.86-3.93,4.11z M197.7,24.3l0.27,2.13c0.72-0.63,3.09-2.43,5.58-2.43c3.3,0,4.8,2.1,4.8,5.4l0,8.4l2.25,0.75l0,1.65l-7.2,0l0-1.65l1.95-0.75l0-8.1c0-2.1-0.75-3.15-2.7-3.15c-2.55,0-4.35,2.4-4.35,2.4l0,8.85l1.95,0.75l0,1.65l-7.5,0l0-1.65l2.55-0.75l0-11.1l-2.55-0.6l0-1.65z M223.716,40.2l0-1.8l2.55-0.6l0-16.2l-2.55-0.6l0-1.65l8.55-0.15l0,1.8l-2.85,0.6l0,6.6l10.05,0l0-6.6l-2.85-0.6l0-1.65l8.55-0.15l0,1.8l-2.55,0.6l0,16.2l2.55,0.6l0,1.8l-8.55,0l0-1.8l2.85-0.6l0-7.2l-10.05,0l0,7.2l2.85,0.6l0,1.8l-8.55,0z M267.174,38.4l0,1.65l-4.95,0.15l-0.3-2.1c-0.72,0.63-3.09,2.4-5.55,2.4c-3.3,0-4.8-2.07-4.8-5.37l0-8.43l-2.55-0.6l0-1.65l5.55-0.15l0,10.53c0,2.1,0.75,3.12,2.7,3.12c2.55,0,4.35-2.37,4.35-2.37l0-8.88l-2.55-0.6l0-1.65l5.55-0.15l0,13.5z M288.732,38.4l0,1.65l-4.95,0.15l-0.3-2.1c-0.72,0.63-3.09,2.4-5.55,2.4c-3.3,0-4.8-2.07-4.8-5.37l0-8.43l-2.55-0.6l0-1.65l5.55-0.15l0,10.53c0,2.1,0.75,3.12,2.7,3.12c2.55,0,4.35-2.37,4.35-2.37l0-8.88l-2.55-0.6l0-1.65l5.55-0.15l0,13.5z"/></svg>
